<svg width="328" height="124" viewBox="0 0 328 124" fill="none" xmlns="http://www.w3.org/2000/svg">
<g clip-path="url(#clip0_4333_160196)">
<rect width="328" height="124" rx="16" fill="url(#paint0_linear_4333_160196)"/>
<g opacity="0.1" filter="url(#filter0_d_4333_160196)">
<path d="M254 53.0011C254 50.6824 255.903 48.7993 258.249 48.7993C273.343 48.7993 288.045 43.5175 302.45 32.8406C303.961 31.7198 306.039 31.7198 307.55 32.8406C321.955 43.5175 336.657 48.7993 351.751 48.7993C354.097 48.7993 356 50.6778 356 53.0011V82.4001C356 110.406 339.239 130.984 306.557 143.707C305.554 144.098 304.441 144.098 303.439 143.707C270.761 130.984 254 110.406 254 82.4001V53.0011ZM262.498 57.0758V82.4001C262.498 106.231 276.401 123.724 305 135.277C333.599 123.724 347.502 106.231 347.502 82.4001V57.0758C332.897 56.2227 318.708 50.9728 305 41.3939C291.292 50.9728 277.103 56.2227 262.498 57.0758ZM308.413 59.9118C307.018 57.1348 302.986 57.1348 301.591 59.9118L294.95 73.1343L280.096 75.2534C276.978 75.698 275.731 79.4642 277.99 81.6287L288.737 91.9244L286.202 106.458C285.671 109.512 288.931 111.84 291.721 110.397L305.009 103.536L318.297 110.397C321.087 111.84 324.348 109.512 323.817 106.458L321.281 91.9244L332.029 81.6287C334.287 79.4642 333.04 75.698 329.923 75.2534L315.069 73.1343L308.427 59.9118H308.413ZM274.47 61.7904C273.74 62.6843 273.888 63.9911 274.798 64.708L281.842 70.2439C282.752 70.9608 284.082 70.8156 284.812 69.9217C285.541 69.0278 285.393 67.721 284.484 67.004L277.44 61.4682C276.53 60.7513 275.2 60.8965 274.47 61.7904ZM335.53 101.753C336.26 100.859 336.112 99.5521 335.202 98.8352L328.158 93.2993C327.248 92.5824 325.918 92.7276 325.188 93.6215C324.459 94.5154 324.607 95.8222 325.516 96.5392L332.56 102.075C333.47 102.792 334.8 102.647 335.53 101.753ZM274.798 98.8352C273.888 99.5521 273.74 100.859 274.47 101.753C275.2 102.647 276.53 102.792 277.44 102.075L284.484 96.5392C285.393 95.8222 285.541 94.5154 284.812 93.6215C284.082 92.7276 282.752 92.5824 281.842 93.2993L274.798 98.8352ZM335.53 61.7904C336.26 62.6843 336.112 63.9911 335.202 64.708L328.158 70.2439C327.248 70.9608 325.918 70.8156 325.188 69.9217C324.459 69.0278 324.607 67.721 325.516 67.004L332.56 61.4682C333.47 60.7513 334.8 60.8965 335.53 61.7904Z" fill="url(#paint1_linear_4333_160196)"/>
</g>
</g>
<defs>
<filter id="filter0_d_4333_160196" x="207" y="-10" width="182" height="192" filterUnits="userSpaceOnUse" color-interpolation-filters="sRGB">
<feFlood flood-opacity="0" result="BackgroundImageFix"/>
<feColorMatrix in="SourceAlpha" type="matrix" values="0 0 0 0 0 0 0 0 0 0 0 0 0 0 0 0 0 0 127 0" result="hardAlpha"/>
<feOffset dx="-7" dy="-2"/>
<feGaussianBlur stdDeviation="20"/>
<feComposite in2="hardAlpha" operator="out"/>
<feColorMatrix type="matrix" values="0 0 0 0 1 0 0 0 0 0.901961 0 0 0 0 0.482353 0 0 0 1 0"/>
<feBlend mode="normal" in2="BackgroundImageFix" result="effect1_dropShadow_4333_160196"/>
<feBlend mode="normal" in="SourceGraphic" in2="effect1_dropShadow_4333_160196" result="shape"/>
</filter>
<linearGradient id="paint0_linear_4333_160196" x1="19.5889" y1="41.6418" x2="335.103" y2="60.4623" gradientUnits="userSpaceOnUse">
<stop stop-color="#090D17"/>
<stop offset="0.9999" stop-color="#090D17"/>
<stop offset="1" stop-color="#090D17" stop-opacity="0"/>
<stop offset="1" stop-color="#01050D"/>
</linearGradient>
<linearGradient id="paint1_linear_4333_160196" x1="251.183" y1="62.3984" x2="354.822" y2="109.797" gradientUnits="userSpaceOnUse">
<stop stop-color="#FFDB1C"/>
<stop offset="0.21" stop-color="#FFC81C"/>
<stop offset="0.38" stop-color="#FFFFB2"/>
<stop offset="0.59" stop-color="#FFBB1C"/>
<stop offset="1" stop-color="#FF9F1C"/>
</linearGradient>
<clipPath id="clip0_4333_160196">
<rect width="328" height="124" rx="16" fill="white"/>
</clipPath>
</defs>
</svg>
