<svg width="22" height="24" viewBox="0 0 22 24" fill="none" xmlns="http://www.w3.org/2000/svg">
<path d="M0 4.50023C0 4.00336 0.410433 3.59984 0.916501 3.59984C4.17207 3.59984 7.34296 2.46804 10.4501 0.180126C10.7759 -0.0600419 11.2241 -0.0600419 11.5499 0.180126C14.657 2.46804 17.8279 3.59984 21.0835 3.59984C21.5896 3.59984 22 4.00239 22 4.50023V10.8C22 16.8013 18.3848 21.2108 11.3357 23.9373C11.1195 24.0209 10.8795 24.0209 10.6633 23.9373C3.6152 21.2108 0 16.8013 0 10.8V4.50023ZM1.833 5.37339V10.8C1.833 15.9067 4.83155 19.6551 11 22.1307C17.1684 19.6551 20.167 15.9067 20.167 10.8V5.37339C17.017 5.19059 13.9567 4.06559 11 2.01298C8.04329 4.06559 4.98297 5.19059 1.833 5.37339ZM11.7362 5.9811C11.4353 5.38603 10.5657 5.38603 10.2648 5.9811L8.83228 8.8145L5.62851 9.26858C4.95608 9.36387 4.6871 10.1709 5.17424 10.6347L7.49239 12.841L6.94548 15.9554C6.83092 16.6097 7.53423 17.1085 8.13594 16.7993L11.002 15.3292L13.868 16.7993C14.4698 17.1085 15.1731 16.6097 15.0585 15.9554L14.5116 12.841L16.8297 10.6347C17.3169 10.1709 17.0479 9.36387 16.3755 9.26858L13.1717 8.8145L11.7392 5.9811H11.7362ZM4.41514 6.38365C4.25774 6.5752 4.28962 6.85523 4.48587 7.00886L6.00507 8.19512C6.20132 8.34875 6.48823 8.31763 6.64563 8.12608C6.80302 7.93453 6.77115 7.6545 6.5749 7.50087L5.0557 6.31461C4.85945 6.16098 4.57254 6.1921 4.41514 6.38365ZM17.5849 14.947C17.7423 14.7555 17.7104 14.4755 17.5141 14.3218L15.9949 13.1356C15.7987 12.9819 15.5118 13.0131 15.3544 13.2046C15.197 13.3962 15.2289 13.6762 15.4251 13.8298L16.9443 15.0161C17.1406 15.1697 17.4275 15.1386 17.5849 14.947ZM4.48587 14.3218C4.28962 14.4755 4.25774 14.7555 4.41514 14.947C4.57254 15.1386 4.85945 15.1697 5.0557 15.0161L6.5749 13.8298C6.77115 13.6762 6.80302 13.3962 6.64563 13.2046C6.48823 13.0131 6.20132 12.9819 6.00507 13.1356L4.48587 14.3218ZM17.5849 6.38365C17.7423 6.5752 17.7104 6.85523 17.5141 7.00886L15.9949 8.19512C15.7987 8.34875 15.5118 8.31763 15.3544 8.12608C15.197 7.93453 15.2289 7.6545 15.4251 7.50087L16.9443 6.31461C17.1406 6.16098 17.4275 6.1921 17.5849 6.38365Z" fill="url(#paint0_linear_4100_16838)"/>
<defs>
<linearGradient id="paint0_linear_4100_16838" x1="-0.60768" y1="6.51394" x2="21.6954" y2="16.7806" gradientUnits="userSpaceOnUse">
<stop stop-color="#FFDB1C"/>
<stop offset="0.21" stop-color="#FFC81C"/>
<stop offset="0.38" stop-color="#FFFFB2"/>
<stop offset="0.59" stop-color="#FFBB1C"/>
<stop offset="1" stop-color="#FF9F1C"/>
</linearGradient>
</defs>
</svg>
