<svg xmlns="http://www.w3.org/2000/svg" xmlns:xlink="http://www.w3.org/1999/xlink" version="1.1" height="128" width="128" viewBox="0 0 33 33"><path fill="#FFFFFF" d="M0,0 h29v29H0z" shape-rendering="crispEdges"></path><path fill="#000000" d="M0 0h7v1H0zM9 0h2v1H9zM12 0h1v1H12zM16 0h1v1H16zM20 0h1v1H20zM22,0 h7v1H22zM0 1h1v1H0zM6 1h1v1H6zM12 1h2v1H12zM15 1h3v1H15zM20 1h1v1H20zM22 1h1v1H22zM28,1 h1v1H28zM0 2h1v1H0zM2 2h3v1H2zM6 2h1v1H6zM8 2h1v1H8zM11 2h2v1H11zM15 2h2v1H15zM19 2h2v1H19zM22 2h1v1H22zM24 2h3v1H24zM28,2 h1v1H28zM0 3h1v1H0zM2 3h3v1H2zM6 3h1v1H6zM8 3h1v1H8zM10 3h2v1H10zM14 3h2v1H14zM17 3h1v1H17zM19 3h1v1H19zM22 3h1v1H22zM24 3h3v1H24zM28,3 h1v1H28zM0 4h1v1H0zM2 4h3v1H2zM6 4h1v1H6zM8 4h1v1H8zM13 4h2v1H13zM16 4h1v1H16zM18 4h2v1H18zM22 4h1v1H22zM24 4h3v1H24zM28,4 h1v1H28zM0 5h1v1H0zM6 5h1v1H6zM8 5h1v1H8zM10 5h7v1H10zM20 5h1v1H20zM22 5h1v1H22zM28,5 h1v1H28zM0 6h7v1H0zM8 6h1v1H8zM10 6h1v1H10zM12 6h1v1H12zM14 6h1v1H14zM16 6h1v1H16zM18 6h1v1H18zM20 6h1v1H20zM22,6 h7v1H22zM8 7h5v1H8zM14 7h1v1H14zM16 7h1v1H16zM19 7h1v1H19zM0 8h1v1H0zM2 8h5v1H2zM9 8h1v1H9zM12 8h1v1H12zM14 8h4v1H14zM19 8h1v1H19zM22 8h5v1H22zM2 9h2v1H2zM5 9h1v1H5zM7 9h1v1H7zM11 9h3v1H11zM16 9h1v1H16zM18 9h5v1H18zM24 9h1v1H24zM28,9 h1v1H28zM1 10h1v1H1zM3 10h2v1H3zM6 10h1v1H6zM8 10h3v1H8zM15 10h1v1H15zM17 10h2v1H17zM22 10h3v1H22zM0 11h2v1H0zM5 11h1v1H5zM7 11h1v1H7zM9 11h4v1H9zM15 11h2v1H15zM18 11h8v1H18zM27 11h1v1H27zM1 12h3v1H1zM6 12h4v1H6zM11 12h5v1H11zM19 12h1v1H19zM25 12h2v1H25zM1 13h2v1H1zM5 13h1v1H5zM9 13h1v1H9zM13 13h1v1H13zM15 13h3v1H15zM19 13h6v1H19zM28,13 h1v1H28zM2 14h5v1H2zM11 14h7v1H11zM20 14h2v1H20zM24 14h3v1H24zM1 15h1v1H1zM3 15h1v1H3zM5 15h1v1H5zM7 15h5v1H7zM14 15h3v1H14zM24 15h1v1H24zM27 15h1v1H27zM1 16h3v1H1zM5 16h2v1H5zM8 16h3v1H8zM13 16h2v1H13zM19 16h1v1H19zM23 16h1v1H23zM25 16h2v1H25zM0 17h2v1H0zM5 17h1v1H5zM7 17h4v1H7zM13 17h1v1H13zM19 17h2v1H19zM22 17h3v1H22zM26 17h1v1H26zM28,17 h1v1H28zM0 18h1v1H0zM5 18h3v1H5zM10 18h1v1H10zM14 18h2v1H14zM21 18h1v1H21zM26 18h1v1H26zM0 19h1v1H0zM2 19h1v1H2zM5 19h1v1H5zM7 19h1v1H7zM12 19h1v1H12zM14 19h2v1H14zM18 19h1v1H18zM20 19h2v1H20zM23 19h2v1H23zM27 19h1v1H27zM0 20h1v1H0zM3 20h5v1H3zM10 20h8v1H10zM19 20h6v1H19zM26,20 h3v1H26zM8 21h4v1H8zM16 21h3v1H16zM20 21h1v1H20zM24,21 h5v1H24zM0 22h7v1H0zM9 22h3v1H9zM14 22h2v1H14zM17 22h1v1H17zM19 22h2v1H19zM22 22h1v1H22zM24 22h3v1H24zM0 23h1v1H0zM6 23h1v1H6zM8 23h1v1H8zM10 23h1v1H10zM12 23h1v1H12zM14 23h2v1H14zM19 23h2v1H19zM24 23h1v1H24zM27,23 h2v1H27zM0 24h1v1H0zM2 24h3v1H2zM6 24h1v1H6zM8 24h2v1H8zM11 24h1v1H11zM15 24h2v1H15zM20 24h5v1H20zM26,24 h3v1H26zM0 25h1v1H0zM2 25h3v1H2zM6 25h1v1H6zM8 25h1v1H8zM11 25h3v1H11zM16 25h2v1H16zM20 25h1v1H20zM23 25h1v1H23zM25,25 h4v1H25zM0 26h1v1H0zM2 26h3v1H2zM6 26h1v1H6zM8 26h5v1H8zM15 26h3v1H15zM19 26h2v1H19zM22 26h1v1H22zM24 26h4v1H24zM0 27h1v1H0zM6 27h1v1H6zM9 27h1v1H9zM15 27h1v1H15zM20 27h2v1H20zM23 27h3v1H23zM27 27h1v1H27zM0 28h7v1H0zM8 28h8v1H8zM21 28h1v1H21zM23 28h1v1H23zM26 28h1v1H26z" shape-rendering="crispEdges"></path></svg>