<svg width="20" height="20" viewBox="0 0 20 20" fill="none" xmlns="http://www.w3.org/2000/svg">
<g clip-path="url(#clip0_4411_1503)">
<path d="M1.67034 18.3346L2.797 14.1946C2.05462 12.922 1.66458 11.4746 1.667 10.0013C1.667 5.3988 5.39784 1.66797 10.0003 1.66797C14.6028 1.66797 18.3337 5.3988 18.3337 10.0013C18.3337 14.6038 14.6028 18.3346 10.0003 18.3346C8.52765 18.337 7.08088 17.9473 5.80867 17.2055L1.67034 18.3346ZM6.99284 6.0913C6.88522 6.09798 6.78007 6.12633 6.68367 6.17464C6.59327 6.22583 6.51075 6.28982 6.43867 6.36464C6.33867 6.4588 6.282 6.54047 6.22117 6.61964C5.91318 7.02046 5.74751 7.51248 5.75034 8.01797C5.752 8.4263 5.85867 8.8238 6.02534 9.19547C6.36617 9.94713 6.927 10.743 7.66784 11.4805C7.84617 11.658 8.02034 11.8363 8.20784 12.0021C9.12733 12.8117 10.223 13.3955 11.4078 13.7071L11.882 13.7796C12.0362 13.788 12.1903 13.7763 12.3453 13.7688C12.588 13.7563 12.825 13.6906 13.0395 13.5763C13.1778 13.503 13.2428 13.4663 13.3587 13.393C13.3587 13.393 13.3945 13.3696 13.4628 13.318C13.5753 13.2346 13.6445 13.1755 13.7378 13.078C13.807 13.0063 13.867 12.9221 13.9128 12.8263C13.9778 12.6905 14.0428 12.4313 14.0695 12.2155C14.0895 12.0505 14.0837 11.9605 14.0812 11.9046C14.0778 11.8155 14.0037 11.723 13.9228 11.6838L13.4378 11.4663C13.4378 11.4663 12.7128 11.1505 12.2703 10.9488C12.2237 10.9285 12.1737 10.9169 12.1228 10.9146C12.0658 10.9088 12.0082 10.9152 11.9539 10.9334C11.8995 10.9517 11.8498 10.9814 11.8078 11.0205V11.0188C11.8037 11.0188 11.7478 11.0663 11.1453 11.7963C11.1108 11.8428 11.0631 11.8779 11.0085 11.8972C10.9539 11.9165 10.8948 11.9191 10.8387 11.9046C10.7844 11.8901 10.7312 11.8717 10.6795 11.8496C10.5762 11.8063 10.5403 11.7896 10.4695 11.7588L10.4653 11.7571C9.98859 11.549 9.54719 11.2678 9.157 10.9238C9.052 10.8321 8.9545 10.7321 8.8545 10.6355C8.52665 10.3215 8.24093 9.96631 8.0045 9.5788L7.95534 9.49964C7.92002 9.44644 7.89147 9.38905 7.87034 9.3288C7.83867 9.2063 7.92117 9.10797 7.92117 9.10797C7.92117 9.10797 8.12367 8.8863 8.21784 8.7663C8.29624 8.66657 8.3694 8.56282 8.437 8.45547C8.53534 8.29714 8.56617 8.13464 8.5145 8.0088C8.28117 7.4388 8.0395 6.8713 7.79117 6.30797C7.742 6.1963 7.59617 6.1163 7.46367 6.10047C7.41867 6.09547 7.37367 6.09047 7.32867 6.08714C7.21676 6.08158 7.10462 6.08352 6.99284 6.0913Z" fill="#27AE60"/>
</g>
<defs>
<clipPath id="clip0_4411_1503">
<rect width="20" height="20" fill="white"/>
</clipPath>
</defs>
</svg>
